<?xml version="1.0" standalone="no"?><!DOCTYPE svg PUBLIC "-//W3C//DTD SVG 1.1//EN" "http://www.w3.org/Graphics/SVG/1.1/DTD/svg11.dtd"><svg t="1586759622956" class="icon" viewBox="0 0 1024 1024" version="1.1" xmlns="http://www.w3.org/2000/svg" p-id="969" width="32" height="32" xmlns:xlink="http://www.w3.org/1999/xlink"><defs><style type="text/css"></style></defs><path d="M513.902 796.29L278.925 918.064c-20.33 10.536-45.352 2.596-55.888-17.734a41.462 41.462 0 0 1-4.036-26.184l0.954-5.481 43.768-251.55L82.447 442.933l-5.9-5.669c-16.974-16.31-17.512-43.291-1.203-60.265a42.624 42.624 0 0 1 24.691-12.661l259.248-37.134 96.737-193.217 0.222-0.443c15.944-31.845 54.684-44.735 86.528-28.791a64.489 64.489 0 0 1 28.792 28.791l96.959 193.66 215.093 30.81 37.553 5.379c25.081 3.592 42.5 26.837 38.908 51.917a45.876 45.876 0 0 1-13.627 26.575l-7.346 7.058-29.327 28.18-145.694 139.992 43.402 249.447 2.748 15.795c3.534 20.311-10.067 39.641-30.377 43.175a37.328 37.328 0 0 1-23.575-3.634L513.902 796.29z" fill="#faca51" p-id="970"></path></svg>