<?xml version="1.0" standalone="no"?><!DOCTYPE svg PUBLIC "-//W3C//DTD SVG 1.1//EN" "http://www.w3.org/Graphics/SVG/1.1/DTD/svg11.dtd"><svg t="1585652540225" class="icon" viewBox="0 0 1024 1024" version="1.1" xmlns="http://www.w3.org/2000/svg" p-id="1168" xmlns:xlink="http://www.w3.org/1999/xlink" width="200" height="200"><defs><style type="text/css"></style></defs><path d="M462.37 935.35H238.21c-88.48 0-160.2-71.73-160.2-160.2V550.99h384.36v384.36zM783.01 935.35H558.85V550.99h384.36v224.16c0.01 88.48-71.72 160.2-160.2 160.2zM382.26 152.87v224.16H158.1V232.97c0-44.17 35.93-80.1 80.1-80.1h144.06m80.11-80.11H238.21c-88.48 0-160.2 71.73-160.2 160.2v224.16h384.36V72.76zM943.22 457.13H558.85V72.76h224.16c88.48 0 160.2 71.73 160.2 160.2v224.17z" fill="#F7B52C" p-id="1169"></path></svg>