<?xml version="1.0" standalone="no"?><!DOCTYPE svg PUBLIC "-//W3C//DTD SVG 1.1//EN" "http://www.w3.org/Graphics/SVG/1.1/DTD/svg11.dtd"><svg t="1588070920495" class="icon" viewBox="0 0 1024 1024" version="1.1" xmlns="http://www.w3.org/2000/svg" p-id="3494" xmlns:xlink="http://www.w3.org/1999/xlink" width="200" height="200"><defs><style type="text/css"></style></defs><path d="M921.05 515.15c0.45 223.2-180.45 404.55-404.1 405-223.2 0.45-404.55-180.45-405-404.1-0.45-223.65 180.45-404.55 404.1-405 223.2-0.45 404.55 180.45 405 404.1z m-42.3 0.45c0.9-198.9-160.2-360.45-361.35-362.25-198.45-1.8-362.25 161.1-362.7 361.8-0.9 198.9 160.65 360.45 361.35 362.25 198 1.8 361.8-161.1 362.7-361.8z" fill="#1296db" p-id="3495"></path><path d="M516.5 515.6m-207.45 0a207.45 207.45 0 1 0 414.9 0 207.45 207.45 0 1 0-414.9 0Z" fill="#1296db" p-id="3496"></path></svg>