<?xml version="1.0" standalone="no"?>
<!DOCTYPE svg PUBLIC "-//W3C//DTD SVG 20010904//EN"
 "http://www.w3.org/TR/2001/REC-SVG-20010904/DTD/svg10.dtd">
<svg version="1.0" xmlns="http://www.w3.org/2000/svg"
 width="164.000000pt" height="153.000000pt" viewBox="0 0 164.000000 153.000000"
 preserveAspectRatio="xMidYMid meet">

<g transform="translate(0.000000,153.000000) scale(0.100000,-0.100000)"
fill="#000000" stroke="none">
<path d="M908 1493 c-25 -29 -45 -75 -53 -122 -6 -35 -13 -46 -38 -60 -18 -9
-48 -33 -69 -54 -20 -21 -42 -44 -49 -50 -281 -277 -492 -493 -517 -532 -63
-97 -78 -214 -34 -275 10 -14 38 -35 62 -47 80 -41 189 -29 343 39 l68 29 69
-15 c129 -30 282 -14 325 34 10 11 22 20 26 20 8 0 32 -100 76 -312 l28 -138
237 0 238 0 0 476 0 477 -70 82 c-83 98 -211 221 -245 237 -14 6 -25 18 -25
27 0 52 -68 176 -106 193 -23 11 -28 9 -45 -12 -11 -14 -27 -51 -37 -82 -21
-72 -40 -75 -66 -11 -21 50 -71 113 -90 113 -7 0 -20 -8 -28 -17z m319 -310
c-2 -21 -4 -4 -4 37 0 41 2 58 4 38 2 -21 2 -55 0 -75z m-379 12 c-3 -3 -9 2
-12 12 -6 14 -5 15 5 6 7 -7 10 -15 7 -18z m97 -16 c-7 -30 -6 -31 17 -26 14
4 42 9 62 13 37 5 37 5 34 -28 -2 -24 1 -33 12 -33 8 0 28 -18 44 -40 40 -55
65 -75 92 -75 13 0 29 -8 36 -17 13 -18 44 -31 34 -14 -3 5 0 11 8 14 9 4 19
-13 31 -56 24 -81 24 -81 45 -62 17 15 19 12 35 -59 9 -42 18 -76 19 -76 2 0
13 9 26 20 21 18 25 19 32 5 5 -8 7 -19 3 -24 -3 -5 -1 -12 5 -16 5 -3 10 -19
10 -36 0 -31 9 -36 28 -17 9 9 12 9 12 0 0 -6 -8 -16 -17 -22 -17 -11 -17 -11
1 -6 10 4 25 1 32 -5 10 -8 14 -8 14 0 0 6 -4 11 -8 11 -5 0 -8 10 -6 23 4 35
5 34 14 -3 8 -34 -3 -65 -20 -55 -5 3 -18 -8 -30 -25 l-21 -30 20 0 c21 0 28
-14 12 -24 -5 -4 -12 0 -14 6 -4 8 -8 4 -12 -9 -6 -19 -15 -23 -46 -23 -22 0
-39 4 -39 9 0 6 -17 11 -37 13 -35 3 -61 28 -29 28 9 0 16 5 16 10 0 6 -7 10
-15 10 -20 0 -54 52 -37 58 17 5 15 22 -2 22 -21 0 -30 20 -17 33 6 6 11 16
11 23 0 22 -41 22 -98 -1 -34 -14 -72 -22 -94 -20 -36 3 -52 -8 -25 -18 7 -3
2 -9 -13 -15 -14 -6 -43 -29 -64 -51 -28 -29 -44 -40 -57 -36 -11 4 -19 2 -19
-4 0 -19 -74 -30 -215 -32 -77 -1 -155 -2 -173 -1 -28 1 -36 -4 -47 -31 -14
-32 -14 -32 -15 -6 0 15 -6 29 -14 32 -12 5 -13 1 -5 -23 6 -16 9 -43 7 -62
-2 -28 -9 -35 -38 -45 -48 -16 -154 -16 -195 1 -18 8 -37 11 -41 8 -4 -4 -4 1
-1 10 4 11 2 17 -6 15 -6 -1 -18 22 -26 55 -14 52 -13 62 3 113 11 35 38 81
75 127 76 95 178 201 184 190 3 -4 -12 -36 -34 -69 -42 -66 -49 -84 -23 -59 8
9 20 13 26 10 7 -5 8 -2 4 5 -7 11 37 91 50 91 3 0 2 -4 -1 -10 -3 -5 1 -10
10 -10 9 0 14 4 10 9 -3 5 9 19 26 31 17 13 28 28 25 36 -3 7 0 16 6 20 7 4 8
3 4 -4 -4 -7 -3 -12 3 -12 6 0 15 9 21 20 6 11 36 44 66 72 29 29 54 58 54 65
0 7 13 19 28 27 16 8 34 22 41 30 7 9 17 13 22 10 5 -3 9 -2 8 3 -3 20 2 24
17 12 13 -10 17 -10 24 2 8 12 11 11 22 -3 12 -17 16 -16 63 7 28 13 51 25 53
25 2 0 0 -14 -3 -31z"/>
<path d="M720 1119 c0 -5 5 -7 10 -4 6 3 10 8 10 11 0 2 -4 4 -10 4 -5 0 -10
-5 -10 -11z"/>
<path d="M690 1110 c-13 -8 -12 -10 3 -10 9 0 17 5 17 10 0 12 -1 12 -20 0z"/>
<path d="M696 939 c-57 -45 -21 -139 55 -139 71 0 104 76 58 134 -26 33 -75
35 -113 5z m74 -24 c0 -8 -9 -15 -20 -15 -11 0 -20 7 -20 15 0 8 9 15 20 15
11 0 20 -7 20 -15z"/>
<path d="M341 734 c0 -11 3 -14 6 -6 3 7 2 16 -1 19 -3 4 -6 -2 -5 -13z"/>
<path d="M212 628 c-18 -18 -14 -46 7 -58 25 -13 48 -4 56 21 12 38 -35 65
-63 37z"/>
</g>
</svg>
