<?xml version="1.0" standalone="no"?><!DOCTYPE svg PUBLIC "-//W3C//DTD SVG 1.1//EN" "http://www.w3.org/Graphics/SVG/1.1/DTD/svg11.dtd"><svg t="1585647184513" class="icon" viewBox="0 0 1024 1024" version="1.1" xmlns="http://www.w3.org/2000/svg" p-id="1150" xmlns:xlink="http://www.w3.org/1999/xlink" width="200" height="200"><defs><style type="text/css"></style></defs><path d="M783.35 808.58H352.58c-18.31 0-36.25-6.32-50.52-17.8-14.27-11.48-24.28-27.66-28.19-45.54L171.73 278.41h692.35c24.52 0 47.39 10.95 62.77 30.05 15.37 19.1 21.18 43.79 15.94 67.74l-80.74 369.03c-3.91 17.89-13.93 34.06-28.19 45.54-14.26 11.49-32.2 17.81-50.51 17.81zM264.58 353.14l82.29 376.12c0.58 2.66 2.98 4.59 5.7 4.59h430.77c2.72 0 5.12-1.93 5.71-4.59l80.74-369.03c0.4-1.81 0.01-3.46-1.16-4.91-1.16-1.45-2.69-2.18-4.55-2.18h-599.5z" fill="#231815" p-id="1151"></path><path d="M717.42 694.62H418.5c-20.64 0-37.37-16.73-37.37-37.37s16.73-37.37 37.37-37.37h298.92c20.64 0 37.37 16.73 37.37 37.37s-16.73 37.37-37.37 37.37z" fill="#F7B52C" p-id="1152"></path><path d="M493.51 924.17H383.52c-20.64 0-37.37-16.73-37.37-37.37s16.73-37.37 37.37-37.37h109.99c20.64 0 37.37 16.73 37.37 37.37s-16.74 37.37-37.37 37.37zM764.85 924.17c-20.64 0-37.37-16.73-37.37-37.37v-4.18c0-20.64 16.73-37.37 37.37-37.37s37.37 16.73 37.37 37.37v4.18c0 20.65-16.73 37.37-37.37 37.37zM239.85 452.71c-17.19 0-32.66-11.93-36.47-29.42l-67.59-310.06c-4.4-20.16 8.39-40.07 28.55-44.47 20.16-4.4 40.07 8.39 44.47 28.55l67.59 310.06c4.4 20.16-8.39 40.07-28.55 44.47-2.69 0.59-5.37 0.87-8 0.87z" fill="#231815" p-id="1153"></path></svg>